# xmcd CD database file
#
# Track frame offsets:
#	150
#	14027
#	28872
#	46570
#	59125
#	72695
#	87867
#	110712
#	127942
#	142905
#	161382
#	177485
#	197925
#	208825
#
# Disc length: 2938 seconds
#
# Revision: 0
# Processed by: cddbd v1.4PL0 Copyright (c) Steve Scherf et al.
# Submitted via: CD2WAV32(EN) R3.19
#
DISCID=d30b780e
DTITLE=Yukadan - Blues 1973-1975
DYEAR=1900
DGENRE=
TTITLE0=Please Find My Baby
TTITLE1=Key To The Highway
TTITLE2=It Hurs Me Too
TTITLE3=Kind Hearted Woman
TTITLE4=King Fish Blues
TTITLE5=I Can'tBe Satisfied
TTITLE6=Careless Love
TTITLE7=Please Find My Baby
TTITLE8=Walkin' Blues
TTITLE9=Shake Your Money MAker
TTITLE10=Look On Yonder Wall
TTITLE11=Rollin' and Tumblin'
TTITLE12=Good Morning Little School Girl
TTITLE13=Take A Little Walk With Me
EXTD=
EXTT0=
EXTT1=
EXTT2=
EXTT3=
EXTT4=
EXTT5=
EXTT6=
EXTT7=
EXTT8=
EXTT9=
EXTT10=
EXTT11=
EXTT12=
EXTT13=
PLAYORDER=
